<svg id="visual" viewBox="0 0 1600 150" width="1600" height="150" xmlns="http://www.w3.org/2000/svg" xmlns:xlink="http://www.w3.org/1999/xlink" version="1.1"><path d="M0 13L160 38L320 52L480 40L640 59L800 42L960 24L1120 72L1280 73L1440 18L1600 63L1600 151L1440 151L1280 151L1120 151L960 151L800 151L640 151L480 151L320 151L160 151L0 151Z" fill="#1b1d35"></path><path d="M0 67L160 59L320 62L480 99L640 58L800 74L960 77L1120 101L1280 64L1440 77L1600 80L1600 151L1440 151L1280 151L1120 151L960 151L800 151L640 151L480 151L320 151L160 151L0 151Z" fill="#17192d"></path><path d="M0 101L160 129L320 127L480 89L640 95L800 93L960 100L1120 98L1280 119L1440 117L1600 91L1600 151L1440 151L1280 151L1120 151L960 151L800 151L640 151L480 151L320 151L160 151L0 151Z" fill="#131525"></path></svg>