<svg xmlns="http://www.w3.org/2000/svg" xmlns:svg="http://www.w3.org/2000/svg" id="svg44" version="1.1" viewBox="0 0 384 512"><!--! Font Awesome Pro 6.1.1 by @fontawesome - https://fontawesome.com License - https://fontawesome.com/license (Commercial License) Copyright 2022 Fonticons, Inc.--><path id="path42" d="M352 359.8c22.46 0 31.1 19.53 31.1 31.99c0 23.14-66.96 88.23-164.5 88.23c-137.1 0-219.4-117.8-219.4-224c0-103.8 79.87-223.1 219.4-223.1c99.47 0 164.5 66.12 164.5 88.23c0 12.27-9.527 32.01-32.01 32.01c-31.32 0-45.8-56.25-132.5-56.25c-97.99 0-155.4 84.59-155.4 159.1c0 74.03 56.42 160 155.4 160C306.5 416 320.5 359.8 352 359.8z" style="fill:#999"/><path style="fill:gray;stroke-width:2.16949" id="path484" d="M 185.36592,476.46228 C 137.01436,468.53098 98.664522,448.14911 63.941268,411.92839 28.114061,374.55612 7.8400219,330.33366 1.655839,276.06919 -9.3181329,179.77563 55.275739,77.212917 146.54354,46.015214 c 26.87476,-9.186492 47.22409,-11.90939 79.9558,-10.698706 34.09775,1.261211 48.98365,4.454395 77.22947,16.566543 30.90756,13.253528 58.1043,33.738813 71.58845,53.922259 5.56104,8.3239 6.65578,11.81491 5.79532,18.48074 -2.74582,21.27132 -24.53881,33.7011 -42.65897,24.33081 -3.45405,-1.78616 -12.07012,-8.06608 -19.14683,-13.95538 C 291.73059,111.71234 271.79852,102.17264 241.88622,97.607144 174.67789,87.349187 110.99766,121.10129 80.16763,183.32203 c -23.815192,48.06349 -23.301341,98.15895 1.524356,148.61017 8.559721,17.39523 13.216289,23.67191 29.851984,40.23813 16.04259,15.97559 23.1417,21.29119 38.15095,28.56623 32.01781,15.51918 67.63559,19.77043 103.68468,12.37554 22.77452,-4.67182 39.00269,-12.93722 63.36616,-32.2739 11.3356,-8.99677 24.05791,-17.31555 28.2718,-18.48619 23.23098,-6.45361 43.40161,17.1763 33.4672,39.20683 -5.16133,11.44581 -31.57493,36.2444 -50.17578,47.10787 -42.53178,24.83989 -96.72218,35.37733 -142.94306,27.79557 z"/></svg>